<svg id="Layer_1" data-name="Layer 1" xmlns="http://www.w3.org/2000/svg" viewBox="0 0 781.96 311.43"><defs><style>.cls-1{font-size:68.98px;font-family:Cinzel-SemiBold, Cinzel;font-weight:600;letter-spacing:0.07em;}.cls-1,.cls-17{fill:#fff;}.cls-2{letter-spacing:0.08em;}.cls-3{letter-spacing:0.07em;}.cls-4{letter-spacing:0.08em;}.cls-5{letter-spacing:0.08em;}.cls-6{letter-spacing:0.08em;}.cls-7{letter-spacing:0.07em;}.cls-8{letter-spacing:0.08em;}.cls-9{letter-spacing:0.08em;}.cls-10{letter-spacing:0.09em;}.cls-11{letter-spacing:0.02em;}.cls-12{letter-spacing:0.07em;}.cls-13{letter-spacing:0.09em;}.cls-14{letter-spacing:0.08em;}.cls-15{letter-spacing:0.09em;}.cls-16{letter-spacing:0.1em;}.cls-18,.cls-19{fill:none;stroke:#fff;stroke-miterlimit:10;}.cls-18{stroke-width:3px;}.cls-19{stroke-width:5px;}</style></defs><text class="cls-1" transform="translate(2.79 95.43)">W<tspan class="cls-2" x="71.74" y="0">e</tspan><tspan class="cls-3" x="115.55" y="0">ll</tspan><tspan class="cls-4" x="200.26" y="0">i</tspan><tspan class="cls-5" x="229.93" y="0">n</tspan><tspan class="cls-6" x="288.91" y="0">g</tspan><tspan class="cls-7" x="344.85" y="0">t</tspan><tspan class="cls-8" x="390.31" y="0">o</tspan><tspan class="cls-9" x="449.02" y="0">n</tspan><tspan class="cls-10"><tspan x="70.85" y="82.78">B</tspan><tspan class="cls-7" x="121.62" y="82.78">o</tspan><tspan class="cls-11" x="179.77" y="82.78">t</tspan><tspan class="cls-4" x="221.92" y="82.78">an</tspan><tspan class="cls-12" x="331.95" y="82.78">i</tspan><tspan class="cls-13" x="360.86" y="82.78">c</tspan><tspan class="cls-9" x="414.6" y="82.78">al</tspan></tspan><tspan class="cls-9"><tspan x="180.61" y="165.56">S</tspan><tspan class="cls-10" x="223.86" y="165.56">o</tspan><tspan x="283.67" y="165.56">c</tspan><tspan class="cls-14" x="336.99" y="165.56">i</tspan><tspan class="cls-15" x="366.38" y="165.56">e</tspan><tspan class="cls-16" x="410.74" y="165.56">t</tspan><tspan x="458.82" y="165.56">y</tspan></tspan></text><path class="cls-17" d="M607.78,262.62c8.84-17.61,11.37-37.42,17.77-55.91a125.19,125.19,0,0,0,4.51-14.53c1.07-4.92,1-10,2.53-14.83s4-9.42,6.14-14c1.07-2.29,2.07-4.65,3.27-6.88a15.52,15.52,0,0,1,4.45-5.05c3.57-2.71,7.11-5.14,10-8.58A41.31,41.31,0,0,0,663.19,132a39.42,39.42,0,0,0,2-6.14c.24-1,.44-2,.59-3.06a10.74,10.74,0,0,1,.52-2.64c.11-.26.27-.2.15-.2.26,0,.54.3.72.47a5.75,5.75,0,0,1,1.39,2.29,31.82,31.82,0,0,1,1.56,6.58,16.91,16.91,0,0,1-.34,6.34,14.16,14.16,0,0,1-3.13,5.51c-2.66,3.15-5.37,6.4-4.41,10.79.85,3.94,4.38,6.23,8.19,4.55,5-2.18,9.78-4.78,14.65-7.16,3.86-1.9,8.44-3.9,10.43-8,1.81-3.73,1.37-8.45-2.4-10.77-3.34-2.06-8.06-1.67-11.64-.55a29.86,29.86,0,0,0-9.86,5.65c-.95.78-1.86,1.62-2.73,2.49-1.71,1.7.94,4.35,2.65,2.65,4.43-4.41,10.64-8.74,17.23-7.82,1.51.22,3.17.84,3.8,2.36a5.56,5.56,0,0,1-.71,4.87,12.48,12.48,0,0,1-4.77,3.92c-2.14,1.17-4.38,2.2-6.57,3.27l-6.92,3.4-3.35,1.64c-.77.38-1.84,1.14-2.75.92s-1.56-1.71-1.69-2.66c-.25-1.78.64-3.3,1.67-4.69,1.26-1.68,2.76-3.17,3.94-4.93a15.3,15.3,0,0,0,2.32-6,27.9,27.9,0,0,0-1.43-13c-1-3.13-4.62-8.13-8.3-5-1.61,1.38-1.62,3.51-2,5.44a37.64,37.64,0,0,1-1.56,6,36.66,36.66,0,0,1-5.8,10.54,43.73,43.73,0,0,1-9.14,8.3,24.32,24.32,0,0,0-5,4.42,30.22,30.22,0,0,0-3.43,6.1c-2.12,4.53-4.34,9-6.32,13.63a45,45,0,0,0-2.4,6.77,55.57,55.57,0,0,0-1.1,7.39A66.91,66.91,0,0,1,624,199.82c-1.55,4.62-3.22,9.19-4.61,13.86-1.33,4.52-2.51,9.09-3.68,13.65-2.34,9.09-4.67,18.22-8.21,26.94q-1.34,3.28-2.93,6.46c-1.08,2.15,2.15,4,3.23,1.89Z" transform="translate(-9.76)"/><path class="cls-17" d="M666.92,153.92c-3.16,3.24-5.59,8-5.53,12.6a5.78,5.78,0,0,0,4,5.64,11.83,11.83,0,0,0,6.69-.32c3-.82,5.9-1.8,8.79-2.87a42.74,42.74,0,0,0,7.47-3.35,13.34,13.34,0,0,0,5.15-5.12,10.52,10.52,0,0,0,.83-6.4c-1.07-6.1-7.54-8.77-13.05-6.76-2.25.82-1.27,4.44,1,3.61,3.42-1.24,7.47-.27,8.33,3.67.77,3.46-1.35,6-4.16,7.77-3.69,2.26-8.07,3.59-12.17,4.89-1.88.59-8.58,3.35-9.1-.3-.27-1.88.56-4.31,1.33-6a15.93,15.93,0,0,1,3.07-4.42c1.69-1.73-1-4.38-2.65-2.65Z" transform="translate(-9.76)"/><path class="cls-17" d="M664.1,170.28a16.39,16.39,0,0,0-2.25,5.84c-.33,2-.63,4.31.3,6.25,2.33,4.83,9.28,4,13.44,2.7a64,64,0,0,0,14.22-6.52c3.54-2.19,6.23-5.41,5.5-9.82-.63-3.83-4.15-6.39-7.9-6.61-2.41-.15-2.4,3.6,0,3.75.49,0-.19-.07.26,0a10.07,10.07,0,0,1,1.33.37,4.22,4.22,0,0,1,2.45,2.41c1.11,3-1.24,5.21-3.53,6.63a64,64,0,0,1-10.69,5.2,25.78,25.78,0,0,1-6,1.74c-1.62.2-3.77.23-5.13-.84s-.79-3.12-.61-4.3a13.44,13.44,0,0,1,1.87-4.93c1.26-2.07-2-4-3.24-1.9Z" transform="translate(-9.76)"/><path class="cls-17" d="M667.12,184.67c-2.36,1-4.7,2.75-4.45,5.63a6.55,6.55,0,0,0,4.88,5.46c3.05.8,6.08-.38,9-1a29.26,29.26,0,0,1,9.43-.28,1.88,1.88,0,0,0,1.87-1.87,1.92,1.92,0,0,0-1.87-1.88,31.24,31.24,0,0,0-7.36-.06c-2.52.29-4.91,1-7.4,1.46-1.66.29-3.75.21-4.64-1.49s1.29-2.28,2.41-2.75a1.9,1.9,0,0,0,.67-2.57,1.93,1.93,0,0,0-2.57-.67Z" transform="translate(-9.76)"/><path class="cls-17" d="M684.89,180.5c3.43,2.15,7.51,5.91,7.06,10.4-.22,2.15-1.69,3.83-3.25,5.19a20.16,20.16,0,0,1-5.21,3.47,33.74,33.74,0,0,1-5.06,1.37,23.32,23.32,0,0,0-6.41,2.69,50.15,50.15,0,0,0-4.53,3.28,45.13,45.13,0,0,1-5.82,3.76,18.84,18.84,0,0,1-3.09,1.44,9.82,9.82,0,0,1-1.06.3l-.38.07c-.47.08.19,0-.22,0a11.16,11.16,0,0,1-6.93-1.87c-2-1.29-3.93,2-1.89,3.24A13.69,13.69,0,0,0,661,215.15a39.66,39.66,0,0,0,7.1-4.07c1.58-1.13,3-2.41,4.66-3.5a20.91,20.91,0,0,1,6.79-3.06,31.51,31.51,0,0,0,6.24-1.92,25,25,0,0,0,6.05-4.31,11.52,11.52,0,0,0,3.74-6.59c.9-6.19-4-11.4-8.82-14.44-2-1.29-3.93,2-1.89,3.24Z" transform="translate(-9.76)"/><path class="cls-17" d="M627,188.51c.47,6.44,4.72,13.27,11.41,14.61a1.88,1.88,0,1,0,1-3.62,8.24,8.24,0,0,1-1-.24l-.48-.16-.24-.09-.24-.11c-.16-.07-.31-.15-.46-.23a9.77,9.77,0,0,1-.88-.53l-.36-.24-.21-.15c.12.09.13.1,0,0s-.5-.41-.73-.63a11.93,11.93,0,0,1-1.4-1.53c-.12-.14.08.14-.1-.12s-.21-.3-.31-.46-.37-.57-.54-.86-.33-.6-.49-.91-.16-.34-.23-.51c-.25-.55.1.31-.11-.25a17.77,17.77,0,0,1-.62-2c-.09-.38-.16-.76-.23-1.14s0,.16,0-.27c0-.19,0-.39,0-.58a1.92,1.92,0,0,0-1.88-1.87,1.88,1.88,0,0,0-1.87,1.87Z" transform="translate(-9.76)"/><path class="cls-17" d="M654.87,214.39c-1.19,14.46-2.45,28.93-3.43,43.41-.07,1.07-.13,2.15-.18,3.23,0,.57,0,.48-.53.53s-.87,0-1.31,0c-4.79.06-9.59,0-14.39,0q-14.88,0-29.77-.13l1.62,2.82.9-1.68c1.15-2.12-2.09-4-3.23-1.89-.31.56-.61,1.12-.91,1.68a1.89,1.89,0,0,0,1.62,2.82c14.57.09,29.16.28,43.73.11,1.64,0,3.5.09,4.8-1.09s1.19-3,1.28-4.66c.29-4.9.7-9.79,1.09-14.68q1.2-15.27,2.46-30.52c.2-2.41-3.55-2.39-3.75,0Z" transform="translate(-9.76)"/><path class="cls-17" d="M673.7,152.69a6.68,6.68,0,0,0-8.81-7.91,2,2,0,0,0-1.12.86,1.86,1.86,0,0,0-.19,1.44,1.89,1.89,0,0,0,2.31,1.31,5.37,5.37,0,0,1,1.13-.3l-.5.07a5.39,5.39,0,0,1,1.27,0l-.5-.07a4.05,4.05,0,0,1,.77.16l.37.12c.18.07.12,0-.18-.08l.18.08a4.36,4.36,0,0,1,.59.35l.16.11-.15-.11.28.27.26.28c.21.24-.28-.4,0,0a4.79,4.79,0,0,1,.33.58c.22.45-.1-.31,0,0,.05.12.09.24.13.36a5,5,0,0,1,.15.75l-.06-.5a5.23,5.23,0,0,1,0,1.25l.06-.5a3.55,3.55,0,0,1-.09.47,1.88,1.88,0,1,0,3.62,1Z" transform="translate(-9.76)"/><path class="cls-17" d="M666.13,163.37c-.69-.08-.34-.06-.2,0s.2,0,.22.07-.49-.25-.21-.09l.21.12a1.53,1.53,0,0,0,.16.11c-.37-.17-.29-.23-.12-.08a3.51,3.51,0,0,1,.33.34c.21.22,0,0-.09-.13l.16.23a5.09,5.09,0,0,1,.3.5c.08.14.14.32.23.45-.28-.42-.09-.22,0-.06s.07.2.1.3a9.15,9.15,0,0,1,.31,1.17c0,.1,0,.22,0,.33,0-.14,0-.42,0-.11s0,.41.05.61c0,.41-.06.83-.05,1.23,0-.52,0-.23,0-.06s0,.22-.07.32-.11.42-.18.63a1.88,1.88,0,0,0,1.31,2.3,1.91,1.91,0,0,0,2.3-1.31,9.69,9.69,0,0,0-.19-6.4A8,8,0,0,0,669,161a4.55,4.55,0,0,0-2.9-1.39,1.88,1.88,0,0,0-1.87,1.87,1.94,1.94,0,0,0,1.87,1.88Z" transform="translate(-9.76)"/><path class="cls-17" d="M665.39,177.16c-.62-.07,0,0,.14.06s.35.14.52.17c-.39-.07-.24-.1,0,0l.2.1.45.31c-.46-.3,0,0,.12.13s.24.28.37.41c-.38-.4,0,0,.07.17a2.69,2.69,0,0,1,.16.29c.15.29-.11-.32,0-.1a5,5,0,0,1,.16.55,2.8,2.8,0,0,0,.06.28c0-.14,0-.41,0-.1a3.62,3.62,0,0,1,0,.57c0,.1,0,.2,0,.29,0-.16.07-.41,0-.1a5.62,5.62,0,0,1-.15.55,1.48,1.48,0,0,0-.1.27c0-.12.17-.38,0-.08a3.5,3.5,0,0,1-.29.49c-.21.31,0-.06.06-.06s-.21.23-.23.26a1.87,1.87,0,1,0,2.65,2.65,6.53,6.53,0,0,0,1.44-6.67,6.75,6.75,0,0,0-2.28-3,6.56,6.56,0,0,0-3.24-1.22,1.88,1.88,0,0,0-1.33.55,2,2,0,0,0-.55,1.33,1.88,1.88,0,0,0,.55,1.32,2.15,2.15,0,0,0,1.33.55Z" transform="translate(-9.76)"/><path class="cls-17" d="M671.29,195.17c3.1-2.65,2.34-8.46-1.36-10.19a2,2,0,0,0-1.44-.19,1.88,1.88,0,0,0-.45,3.43,3.75,3.75,0,0,1,.44.24l.21.14c-.48-.29-.25-.2-.13-.09a3.85,3.85,0,0,1,.35.35c.11.13.2.34-.09-.12,0,.07.1.13.14.2a3.7,3.7,0,0,1,.25.43c0,.07.07.15.11.22-.27-.5-.12-.29-.07-.13a5.46,5.46,0,0,1,.24,1s-.06-.59,0-.16c0,.08,0,.16,0,.25a4.26,4.26,0,0,1,0,.5c0,.16-.09.44,0-.17,0,.08,0,.16,0,.25a4.21,4.21,0,0,1-.12.48,1.55,1.55,0,0,0-.08.23c-.11.29.21-.44,0-.15a4,4,0,0,1-.22.4l-.13.2c-.1.16.34-.39.08-.12a4.51,4.51,0,0,1-.39.37,1.9,1.9,0,0,0,0,2.66,1.92,1.92,0,0,0,2.65,0Z" transform="translate(-9.76)"/><path class="cls-17" d="M650.14,196.8c9.27-6,15.74-15.39,16.62-26.56.19-2.41-3.56-2.4-3.75,0-.77,9.79-6.67,18.08-14.76,23.32-2,1.31-.14,4.56,1.89,3.24Z" transform="translate(-9.76)"/><path class="cls-17" d="M672.34,194.45A229.58,229.58,0,0,0,679.93,225c.74,2.29,4.36,1.31,3.62-1A228.19,228.19,0,0,1,676,193.45c-.42-2.37-4-1.36-3.62,1Z" transform="translate(-9.76)"/><path class="cls-17" d="M666,194.91q-.12,17.7,1.16,35.35c.17,2.4,3.93,2.41,3.75,0q-1.27-17.64-1.16-35.35c0-2.41-3.74-2.41-3.75,0Z" transform="translate(-9.76)"/><path class="cls-17" d="M659.59,183.08a425.83,425.83,0,0,1-12.14,46.2c-.74,2.3,2.88,3.29,3.62,1a428.15,428.15,0,0,0,12.14-46.2c.48-2.36-3.13-3.37-3.62-1Z" transform="translate(-9.76)"/><path class="cls-17" d="M675.74,134.81a394,394,0,0,0,7.1-58.29c.11-2.41-3.64-2.41-3.75,0a387.35,387.35,0,0,1-7,57.29c-.47,2.36,3.15,3.37,3.62,1Z" transform="translate(-9.76)"/><path class="cls-17" d="M675.06,127.52c-2.79-16.08-10.42-30.71-18-45-1.13-2.14-4.36-.25-3.24,1.89,7.4,14,14.84,28.32,17.59,44.11.41,2.37,4,1.36,3.61-1Z" transform="translate(-9.76)"/><path class="cls-17" d="M677.48,133.49a405.47,405.47,0,0,1,26.16-37.81,1.93,1.93,0,0,0,0-2.65A1.88,1.88,0,0,0,701,93a413.87,413.87,0,0,0-26.75,38.56c-1.27,2.07,2,3.95,3.24,1.9Z" transform="translate(-9.76)"/><path class="cls-17" d="M665.48,107.86c-6.38-1.76-14.5-3.41-19.66,2.07-1.22,1.3-2.16,3-1.43,4.75A5.32,5.32,0,0,0,648,117.5a20.2,20.2,0,0,0,9.56.2,21.73,21.73,0,0,0,9.85-4.87,1.9,1.9,0,0,0,0-2.65,1.91,1.91,0,0,0-2.65,0A17.93,17.93,0,0,1,652,114.37a11.64,11.64,0,0,1-4-.93.41.41,0,0,1-.18-.21c.12.31.12,0,.33-.31a6.48,6.48,0,0,1,1.55-1.4,10.34,10.34,0,0,1,4.12-1.53c3.58-.55,7.23.54,10.65,1.49,2.33.65,3.32-3,1-3.62Z" transform="translate(-9.76)"/><path class="cls-17" d="M684.84,122.84l4.63-1a24,24,0,0,1,3.94-.66,4.39,4.39,0,0,1,2.88.69,2.62,2.62,0,0,1,.83,1.06,1.26,1.26,0,0,1,0,.81c-.64,1.87-3.78,1-5.36.54a55.53,55.53,0,0,1-8-3.25,1.93,1.93,0,0,0-2.57.68,1.89,1.89,0,0,0,.68,2.56,63.16,63.16,0,0,0,8.07,3.34c2.68.9,5.6,1.66,8.25.25a5.05,5.05,0,0,0,2.22-6.72c-1.19-2.56-4-3.74-6.7-3.72a24,24,0,0,0-4.77.71l-5.1,1.08a1.9,1.9,0,0,0-1.31,2.31,1.93,1.93,0,0,0,2.31,1.31Z" transform="translate(-9.76)"/><path class="cls-17" d="M682.3,92.23l.2-.52s.17-.36.23-.5a14.31,14.31,0,0,1,.79-1.37,10.42,10.42,0,0,1,1.69-2l.52-.46.31-.25c-.07,0-.21.14.09-.07a12.45,12.45,0,0,1,1.35-.82,5,5,0,0,1,1.12-.38s.45-.07.27,0,.18,0,.16,0,.72,0,.42,0a3.52,3.52,0,0,1,.71.18c-.26-.09.2.1.29.15l.23.15c-.08-.06-.18-.19,0,0l.18.19,0,0,.1.16s.13.32,0,.09c0,.09.05.18.08.28.08.3,0-.24,0,.08,0,.09,0,.19,0,.29s0,.27,0,.39c0,0,0-.21,0,0s-.07.25-.11.38-.17.41-.07.2a5.23,5.23,0,0,1-1.59,1.82,17.83,17.83,0,0,1-2.8,1.64A20.2,20.2,0,0,1,680,93.67a1.92,1.92,0,0,0-1.88,1.87A1.89,1.89,0,0,0,680,97.42a24.56,24.56,0,0,0,8.27-2.24c2.41-1.14,5-2.75,6.11-5.3a5.4,5.4,0,0,0-2.56-7.25c-2.71-1.18-5.6-.25-7.86,1.45a15.43,15.43,0,0,0-5.23,7.15,1.87,1.87,0,1,0,3.61,1Z" transform="translate(-9.76)"/><path class="cls-17" d="M679.31,97.47l-.27-.3c.14.17-.06-.08-.07-.1-.16-.22-.3-.44-.44-.67-.28-.46-.53-.94-.8-1.41a9.65,9.65,0,0,0-2.05-2.69,5.63,5.63,0,0,0-3.46-1.49,5.08,5.08,0,0,0-3.58,1.5c-3.26,3.14-2.2,8.66,1,11.39a13.08,13.08,0,0,0,6.62,2.89,1.93,1.93,0,0,0,2.31-1.31,1.9,1.9,0,0,0-1.31-2.3,10.53,10.53,0,0,1-4.38-1.52l-.46-.31c-.17-.13,0,0,0,0a3,3,0,0,1-.28-.24,6.75,6.75,0,0,1-.83-.86c-.2-.24.13.19,0,0,0-.07-.09-.14-.14-.21s-.17-.28-.25-.43-.21-.46-.09-.17a4.83,4.83,0,0,1-.22-.64,4.37,4.37,0,0,1-.12-.49c0-.08,0-.17-.05-.25-.06-.28,0,.29,0,0s0-.72,0-1.08c0-.11.08-.33,0,0,0-.08,0-.16.05-.24a3.62,3.62,0,0,1,.13-.47,2.09,2.09,0,0,1,.08-.23s-.14.25,0,.07.21-.38.32-.56,0,0-.05,0l.17-.18c.06-.07.41-.4.27-.29a2,2,0,0,1,.51-.3s-.2.09,0,0-.21,0,.07,0h.27c-.3,0-.07,0,0,0s.48.18.23.06c.17.08.32.18.48.27s.27.22.07,0l.28.25a8,8,0,0,1,1.43,2.12,13.77,13.77,0,0,0,1.92,2.8,1.87,1.87,0,0,0,2.65-2.65Z" transform="translate(-9.76)"/><path class="cls-17" d="M700.22,100.57a20.75,20.75,0,0,1,5.46-2.8c.4-.12.8-.2,1.2-.29s-.14,0,.21,0,.47,0,.7,0,.41,0,.61,0l.25,0c-.08,0-.34-.08,0,0l.47.12.31.11c-.17-.07-.17-.09,0,0s.46.31.32.2.22.24.26.29c-.2-.25,0,.06.07.16-.11-.21,0,0,0,.1a2.49,2.49,0,0,1,.09.37c0-.3,0,.29,0,.38s0,0,0,0c0,.13-.07.25-.1.38s0,0-.12.29l-.2.34s-.19.23-.06.09c-1.14,1.35-3,1.64-4.77,1.56a9,9,0,0,1-5.4-2.17,1.91,1.91,0,0,0-2.65,0,1.89,1.89,0,0,0,0,2.65,13.08,13.08,0,0,0,7.42,3.23,10,10,0,0,0,7.67-2.23,5.69,5.69,0,0,0,.8-7.67c-1.55-1.93-4.21-2.18-6.5-1.84a19.92,19.92,0,0,0-7.92,3.52,1.93,1.93,0,0,0-.67,2.57,1.89,1.89,0,0,0,2.57.67Z" transform="translate(-9.76)"/><path class="cls-17" d="M659.8,87.87a27.56,27.56,0,0,0-7.9-2.24,6.75,6.75,0,0,0-6.62,2.86,4.42,4.42,0,0,0-.29,4.24,5,5,0,0,0,2.16,2.1A13.7,13.7,0,0,0,652,96.2a13.49,13.49,0,0,0,7.78-1.5,1.89,1.89,0,0,0,.67-2.56,1.91,1.91,0,0,0-2.57-.67l-.39.19c-.15.07-.51.21-.14.07a13.87,13.87,0,0,1-1.33.46,11.76,11.76,0,0,1-1.43.31c.28,0-.06,0-.09,0l-.41,0a9.73,9.73,0,0,1-1.08,0c-.3,0-.6-.06-.9-.07s.55.08.29,0l-.62-.1a13.39,13.39,0,0,1-1.89-.47c-.17-.06-.32-.13-.49-.18s.32.16.09,0l-.23-.11-.44-.25a2.26,2.26,0,0,0-.2-.13c-.19-.08.27.26,0,0-.05,0-.44-.46-.24-.22s-.25-.44,0-.06,0-.3,0-.11,0-.12,0-.17,0-.11,0,.08l0-.16c.13-.13.08-.18,0,0,0-.1.12-.2.17-.3.14-.28.08-.12,0,0a2.84,2.84,0,0,1,.24-.26,2.73,2.73,0,0,1,.25-.23c-.22.19,0,0,.05,0l.31-.18c.37-.24-.23,0,.19-.09l.57-.15c.19,0,.59-.07.17,0a7.69,7.69,0,0,1,1.27,0l.32,0c-.29,0-.07,0,.09,0l.86.16c.7.15,1.39.31,2.08.5s1.21.37,1.81.59l.8.3.29.12c-.29-.11-.09,0,.08,0a1.93,1.93,0,0,0,2.56-.67,1.89,1.89,0,0,0-.67-2.57Z" transform="translate(-9.76)"/><path class="cls-17" d="M659,87.19A11.88,11.88,0,0,1,659.6,85c0-.07.14-.32,0,0a2.14,2.14,0,0,0,.1-.22c.08-.17.17-.34.26-.51.17-.33.37-.65.57-1l.33-.46c.12-.17,0,0-.05.06l.2-.24a9.21,9.21,0,0,1,.75-.78l.23-.2s.23-.17,0,0,0,0,.06,0l.25-.17.4-.22c.3-.16,0,0,0,0l.28-.1c.17,0,.34-.08.51-.12s-.13,0-.13,0a1,1,0,0,1,.29,0h.19c.21,0-.16,0-.17,0a4.84,4.84,0,0,0,.51.14s-.4-.21-.08,0l.17.09.17.1c.23.14-.06.06-.06,0s.23.22.27.26c.27.27-.07-.07,0-.08a1.16,1.16,0,0,1,.13.22c.18.25-.11-.1,0-.11a1,1,0,0,1,0,.18c0,.43.06-.26,0,.07s.07-.29,0,.08,0,.05,0,0c0,.1-.09.19-.14.27a2.33,2.33,0,0,1-.17.26s-.16.24,0,.07,0,0-.05,0l-.21.24c-.26.28-.54.55-.82.83-1.37,1.34-2.81,2.63-4.3,3.85a1.89,1.89,0,0,0,0,2.65,1.93,1.93,0,0,0,2.65,0q2.34-1.92,4.49-4c1.48-1.46,2.89-3.41,2.07-5.59a5,5,0,0,0-4.83-3.16,7.46,7.46,0,0,0-5.19,2.86,13.37,13.37,0,0,0-2.88,6.06,1.88,1.88,0,0,0,3.62,1Z" transform="translate(-9.76)"/><path class="cls-17" d="M704.91,93.2a33.19,33.19,0,0,0,1.72-8.66c.16-2.27.11-5-1.66-6.73a4.11,4.11,0,0,0-3.79-1,5.27,5.27,0,0,0-3,2.32A10,10,0,0,0,697,86.3a11.52,11.52,0,0,0,4,6.87,1.93,1.93,0,0,0,2.65,0,1.9,1.9,0,0,0,0-2.66,7.84,7.84,0,0,1-2.71-3.92,12.14,12.14,0,0,1-.29-1.19,6.54,6.54,0,0,1-.08-1.12,5.89,5.89,0,0,1,.33-2.31,3.15,3.15,0,0,1,.45-.91c.15-.24,0,0,.19-.25l.21-.21c.23-.22-.18.12.07-.06l.18-.12c-.14.09.08,0,.11,0-.35,0,.24,0-.08,0a1.83,1.83,0,0,1,.25.06c.24.06-.08,0-.07,0s.25.19.08,0l.17.17c-.22-.21,0,0,.09.15s.2.46.1.18a5.67,5.67,0,0,1,.3,1.23c0-.3,0,.14,0,.23s0,.36,0,.54c0,.59,0,1.18-.08,1.76a29.45,29.45,0,0,1-1.58,7.54,1.88,1.88,0,0,0,3.62,1Z" transform="translate(-9.76)"/><path class="cls-17" d="M705.56,93.16a90.25,90.25,0,0,1,15.1-11.73c2.05-1.27.16-4.51-1.89-3.24a95.06,95.06,0,0,0-15.86,12.32c-1.74,1.67.91,4.32,2.65,2.65Z" transform="translate(-9.76)"/><path class="cls-17" d="M657.46,83.19l-5-9.22a1.88,1.88,0,0,0-3.24,1.9l5,9.21a1.89,1.89,0,0,0,2.56.67,1.91,1.91,0,0,0,.68-2.56Z" transform="translate(-9.76)"/><path class="cls-17" d="M651.45,74.31a22.24,22.24,0,0,0-6-4c-2.28-1-5.2-2.24-7.67-1.22a4,4,0,0,0-1.21,6.83,11.1,11.1,0,0,0,6,3.22c3.17.64,6.34.2,9.49-.26a1.87,1.87,0,0,0,1.31-2.3,1.91,1.91,0,0,0-2.3-1.31,23.2,23.2,0,0,1-7.5.25,8.61,8.61,0,0,1-2.91-1.07,4.62,4.62,0,0,1-1.78-1.65c.08.17-.09.13,0,0a1.19,1.19,0,0,1,.23-.23s.22-.08.35-.09a3.25,3.25,0,0,1,.54,0,11,11,0,0,1,3.35,1A18.61,18.61,0,0,1,648.8,77c1.76,1.65,4.42-1,2.65-2.65Z" transform="translate(-9.76)"/><path class="cls-17" d="M651.74,74.69a39,39,0,0,1-3.25-10.32c-.44-2.67-.73-5.66.42-8.2A5.83,5.83,0,0,1,652,53.05c.56-.21,1.29-.43,1.77,0A5.94,5.94,0,0,1,655,55.62a14.56,14.56,0,0,1-.69,8.91c-1.31,3.72-3,7.34-4.62,10.91-1,2.17,2.22,4.08,3.24,1.89a120.58,120.58,0,0,0,5.09-12.08c1.29-3.77,1.71-8,.19-11.78-.86-2.15-2.24-4.28-4.78-4.4a8,8,0,0,0-5.83,2.46c-3,3-3.52,7.26-3.1,11.26a42.18,42.18,0,0,0,4,13.79c1,2.18,4.26.28,3.23-1.89Z" transform="translate(-9.76)"/><path class="cls-17" d="M648.21,64.68a9.89,9.89,0,0,0-8.09-3.3,8.22,8.22,0,0,0-5.27,2.6,4.21,4.21,0,0,0,0,5.46,9,9,0,0,0,5.88,3.1,1.93,1.93,0,0,0,2.31-1.31,1.9,1.9,0,0,0-1.31-2.31,11,11,0,0,1-1.27-.25c-.2,0-.39-.11-.59-.18l-.23-.08c-.34-.12.1.06-.09,0s-.6-.3-.88-.47l-.28-.18c.21.14,0,0-.08-.07l-.2-.18c-.11-.1-.2-.21-.31-.32s.18.31,0,0c-.07-.11-.13-.23-.2-.33s-.09-.24,0,0,0,0,0-.07-.11-.5-.05-.13,0-.14,0-.13-.05.39,0,.18a1,1,0,0,1,.05-.18c.07,0-.2.35,0,.1a1.09,1.09,0,0,0,.14-.23c-.19.36,0,0,.11-.09s.41-.33.12-.13a9.56,9.56,0,0,1,1-.58c.06,0,.35-.17.12-.06s0,0,.06,0,.31-.12.48-.17l.46-.13c.12,0,.63-.12.26-.08a6.2,6.2,0,0,1,1.14,0c.17,0,.45.08.12,0l.6.13.49.15c.17.06.51.2.16,0,.31.14.62.29.92.46s.56.35.82.54l.14.1c.31.22-.24-.21-.08-.06l.29.24c.23.2.46.42.67.64a1.88,1.88,0,0,0,2.65,0,1.91,1.91,0,0,0,0-2.65Z" transform="translate(-9.76)"/><path class="cls-17" d="M641.4,62.37c-.08-.14-.16-.28-.23-.42l-.11-.21c-.08-.18-.06-.14.06.13-.06-.26-.18-.51-.24-.77,0-.07,0-.15,0-.22s0-.15,0,.16c0-.11,0-.23,0-.34a6.6,6.6,0,0,1,0-.77c0-.21,0-.15,0,.17a1.43,1.43,0,0,1,0-.22c0-.15.06-.29.1-.43s.07-.21.11-.31.05-.14-.06.14a1.74,1.74,0,0,1,.1-.19c.11-.23.27-.42.39-.64-.28.49-.09.14,0,0a2.72,2.72,0,0,1,.24-.24c.08-.08.18-.14.26-.22-.4.39-.14.1,0,0a5,5,0,0,1,.6-.33c.29-.15-.46.17,0,0a1.31,1.31,0,0,1,.28-.09l.38-.1c.07,0,.52-.09.15,0s.08,0,.15,0a2.77,2.77,0,0,1,.41,0h.3l.21,0c.2,0,.13,0-.19,0,.22.08.48.1.71.17a3.31,3.31,0,0,0,.41.14l-.15-.07.2.1a1.88,1.88,0,0,0,1.89-3.24,7.52,7.52,0,0,0-6.79,0,6.67,6.67,0,0,0-3.54,5.7,7.38,7.38,0,0,0,1.11,4.06,1.87,1.87,0,1,0,3.23-1.89Z" transform="translate(-9.76)"/><path class="cls-17" d="M680.5,73.37a44.42,44.42,0,0,1-4.31-3.4,22,22,0,0,1-3.63-3.84c-.67-1-1.46-2.38-1-3.63A4.14,4.14,0,0,1,673,60.87a9.76,9.76,0,0,1,2.27-1.43c3.34-1.28,4.6,3.81,5,6a24.44,24.44,0,0,1-.86,11.36c-.71,2.31,2.9,3.3,3.62,1a28.08,28.08,0,0,0,1.13-11.41c-.41-3.62-1.29-7.66-4.53-9.82s-7.07-.41-9.75,2c-2.91,2.64-2.55,6.51-.45,9.53,2.34,3.39,5.83,6.12,9.18,8.45a1.88,1.88,0,0,0,1.9-3.24Z" transform="translate(-9.76)"/><path class="cls-17" d="M684.43,68.08c0-.07.29-.34.27-.4s-.32.4-.12.17a1.83,1.83,0,0,1,.13-.16l.35-.39c.12-.13.24-.25.37-.37l.31-.27c-.16.12.22-.17.31-.22s.47-.29.71-.42l.31-.15c-.08,0-.29.09,0,0s.47-.15.72-.2a2.8,2.8,0,0,0,.28-.06c.32-.08-.27,0,0,0s.4,0,.6,0a8.44,8.44,0,0,1,1.23.05c-.45-.05.19,0,.28.07l.31.09c.05,0,.45.17.21.06s.51.31.24.13.43.39.17.17,0,.17,0,0,0,0,0,0c.06.35,0,0,0-.08v.44c0-.08.09-.38,0,0,0,.1,0,.21-.08.31s-.24.64-.1.32a8.71,8.71,0,0,1-.66,1.2c-.24.38-.51.74-.77,1.1.24-.33-.12.15-.17.22L689,70a17.35,17.35,0,0,1-1.31,1.4c-.33.31-.67.6-1,.88s-.06.06,0,0l-.34.25-.67.46a17.9,17.9,0,0,1-3.3,1.66A1.92,1.92,0,0,0,681,77a1.88,1.88,0,0,0,2.31,1.31A20.1,20.1,0,0,0,693.62,70a7.46,7.46,0,0,0,1.26-3.6,4.12,4.12,0,0,0-1.83-3.56,8.25,8.25,0,0,0-6.75-.68,9.75,9.75,0,0,0-5.11,4,1.88,1.88,0,0,0,3.24,1.89Z" transform="translate(-9.76)"/><path class="cls-17" d="M691.69,61.55a7.22,7.22,0,0,0-12.79-5.12,2,2,0,0,0-.55,1.32,2,2,0,0,0,.55,1.33,1.9,1.9,0,0,0,2.66,0,4.37,4.37,0,0,1,.54-.6l.31-.27-.17.13c.08-.05.15-.11.23-.15s.43-.25.65-.37l-.14.06.19-.08.33-.1.39-.1.2,0-.16,0c.25,0,.55,0,.81,0,.1,0,.33,0,.41,0-.13-.09-.35-.06,0,0a7,7,0,0,1,.78.23c.21.07-.31-.17,0,0,.12.07.24.12.35.19l.34.23-.11-.09.16.13c.2.18.38.38.57.58s-.12-.19,0,0l.23.34a2.59,2.59,0,0,1,.34.66c-.11-.45,0-.05,0,.06s.08.26.11.39a3.53,3.53,0,0,0,.08.4l0-.23c0,.09,0,.18,0,.27a4.52,4.52,0,0,1,0,.82,1.89,1.89,0,0,0,1.88,1.87,1.91,1.91,0,0,0,1.87-1.87Z" transform="translate(-9.76)"/><path class="cls-17" d="M676.34,56.83c0-.31,0-.6,0-.91q0-.22,0,.15a2.56,2.56,0,0,1,.05-.27,2.79,2.79,0,0,1,.1-.39c0-.13.08-.26.12-.39.14-.41-.19.34,0,0,.13-.23.26-.46.41-.68s-.25.27.07-.09a3.7,3.7,0,0,1,.28-.28c.09-.09.38-.45.07-.09a1.46,1.46,0,0,1,.33-.22l.34-.2.18-.09-.14.06c.14-.15.65-.18.84-.23s-.42,0,0,0a3.38,3.38,0,0,1,.45,0,1.59,1.59,0,0,1,.39,0c0-.05-.44-.08,0,0,.14,0,.68.09.74.21-.25-.1-.28-.12-.09,0l.11.05.4.22c.11.07.21.16.32.22l-.12-.09.2.17a3.57,3.57,0,0,1,.28.27s.21.29.26.3c-.14-.19-.17-.22-.09-.11l.11.16a3.24,3.24,0,0,1,.21.35,1.81,1.81,0,0,1,.18.37c-.11-.49,0,.1,0,.21a1.88,1.88,0,0,0,3.62-1,7.07,7.07,0,0,0-7.92-5,7,7,0,0,0-5.53,7.31,1.92,1.92,0,0,0,1.88,1.88,1.9,1.9,0,0,0,1.87-1.88Z" transform="translate(-9.76)"/><path class="cls-17" d="M694.66,64.72a15.7,15.7,0,0,0,2.8-4.79,6.59,6.59,0,0,0,.11-3.33A6.48,6.48,0,0,0,695.76,53,5.44,5.44,0,0,0,691,51.73a7.27,7.27,0,0,0-4.65,3.32,1.87,1.87,0,0,0,.67,2.56,1.92,1.92,0,0,0,2.57-.67l.25-.38c-.21.3.05,0,.14-.13l.31-.3.16-.14c.17-.15.07,0,0,0,.26-.15.5-.31.76-.45a1.42,1.42,0,0,1,.18-.08s-.35.11-.14.06.32-.1.49-.14.45,0,.18,0H692a3,3,0,0,1,.42,0c.31,0-.37-.1,0,0,.11,0,.23.08.34.1s-.18,0-.17-.08l.17.08a3.37,3.37,0,0,0,.35.22s-.28-.26-.15-.12.11.1.16.16.15.16.23.24-.2-.32-.09-.11a1,1,0,0,1,.09.13c.06.1.12.19.17.29s.2.46.1.16,0,.11.06.18l.09.3c.06.22.11.44.16.67a2.51,2.51,0,0,0,0,.27,1.5,1.5,0,1,0,0-.17c0,.17,0,.33,0,.49s0,.2,0,.3c0,.29.13-.62,0-.29s-.08.38-.14.57-.14.42-.21.64c.11-.32-.07.14-.12.24a10.8,10.8,0,0,1-.63,1.1c-.46.72-1,1.4-1.5,2.08a1.86,1.86,0,0,0,.67,2.56,1.93,1.93,0,0,0,2.56-.67Z" transform="translate(-9.76)"/><path class="cls-17" d="M721.87,80.4a13,13,0,0,1,10.23-5.81,4,4,0,0,1,2.11.45,1.22,1.22,0,0,1,.45.41,1.25,1.25,0,0,1,0,.71,3.09,3.09,0,0,1-2.18,1.51,30.35,30.35,0,0,1-3.77.77,55.93,55.93,0,0,1-9.41.69c-2.41,0-2.42,3.74,0,3.75A62.45,62.45,0,0,0,729.84,82c3-.5,6.7-1.1,8.13-4.22s-.56-6-3.61-6.71a13.39,13.39,0,0,0-8.3,1.14,17.15,17.15,0,0,0-7.43,6.26,1.9,1.9,0,0,0,.67,2.57,1.92,1.92,0,0,0,2.57-.67Z" transform="translate(-9.76)"/><path class="cls-17" d="M720.84,78.63A16.88,16.88,0,0,1,719.27,73c0-.23,0-.46,0-.69l0-.35c0,.21,0,.21,0,0a9.4,9.4,0,0,1,.33-1.15c-.14.36.13-.26.17-.32s.33-.53.23-.38.24-.28.29-.33l.23-.22c-.17.13-.17.13,0,0s.36-.22.55-.32c-.35.19,0,0,.15,0a6,6,0,0,1,.61-.15c-.46.09.18,0,.28,0l.31,0c-.24,0-.26,0,0,0s.29.08.44.14c-.42-.17.15.12.23.17-.35-.24.13.17.19.23-.28-.29,0,0,.07.11s.31.66.15.24a8.28,8.28,0,0,1,.32,1.21c-.09-.43,0,.07,0,.15s0,.43,0,.65c0,.43,0,.86,0,1.29a1.88,1.88,0,0,0,1.87,1.87,1.92,1.92,0,0,0,1.88-1.87,10.24,10.24,0,0,0-.82-5.1,5.29,5.29,0,0,0-4.62-2.87,6.22,6.22,0,0,0-4.81,2.2,8.49,8.49,0,0,0-1.84,5.42,18,18,0,0,0,1.71,6.7,1.92,1.92,0,0,0,2.3,1.31,1.88,1.88,0,0,0,1.31-2.31Z" transform="translate(-9.76)"/><path class="cls-17" d="M727.2,69.47c.08-.27.16-.53.26-.78s-.13.26,0-.07c.08-.16.16-.33.25-.49s.28-.48.44-.7l.12-.17c.12-.18-.08.11-.08.11s.29-.33.31-.36a8,8,0,0,1,.6-.56c.16-.14-.11.1-.12.09a.82.82,0,0,0,.17-.11l.4-.25s.51-.25.26-.14.15-.05.22-.07l.34-.09s.17,0,.18,0-.44,0-.14,0,.48,0,.72,0-.36-.08,0,0c.14,0,.28.05.41.09l.4.13c.33.1-.3-.17,0,0l.32.17.14.1c.09,0,.21.2.05,0s.07.06.12.12a2.83,2.83,0,0,1,.24.25c.15.12-.11-.13-.11-.16a1.21,1.21,0,0,0,.1.14l.2.35c.15.27-.1-.38,0,0,0,.07.12.5.08.26s0,.19,0,.27,0,.15,0,.22c0,.31,0,0,0,0s-.25.89-.3,1c.13-.34,0,.07-.11.19s-.17.32-.27.48c-.21.35-.45.67-.68,1-.12.17,0,0,0-.06l-.2.25c-.13.17-.27.33-.4.49a1.91,1.91,0,0,0,0,2.65,1.9,1.9,0,0,0,2.65,0,12.14,12.14,0,0,0,2.81-4.73,5.44,5.44,0,0,0-1.29-5.14A6.37,6.37,0,0,0,731,62.1a6.81,6.81,0,0,0-4.62,1.75,9.48,9.48,0,0,0-2.84,4.62,1.88,1.88,0,1,0,3.62,1Z" transform="translate(-9.76)"/><path class="cls-17" d="M739.1,76.54a5.78,5.78,0,0,0,3.12-6.85,5.9,5.9,0,0,0-2.47-3.19,6.1,6.1,0,0,0-4.18-.76,1.89,1.89,0,0,0-1.12.86,2,2,0,0,0-.19,1.45,1.91,1.91,0,0,0,.87,1.12,2.22,2.22,0,0,0,1.44.19c-.64.09.11,0,.29,0s.46.05.1,0,.08,0,.15,0l.29.09c.15,0,.42.21-.07-.05a4.3,4.3,0,0,1,.52.28c.09.05.16.12.25.17-.44-.24-.2-.16-.08,0a1,1,0,0,1,.21.21s.33.38.11.11,0,0,0,.09.12.2.18.3l0,.09c.08.18.06.12-.07-.17,0,.09.07.2.09.29s0,.2.08.3c.08.36,0-.47,0-.09v.61c0,.36.09-.49,0,0a2.46,2.46,0,0,1-.07.29l-.09.29c0,.14,0,.06.09-.21l-.09.18c-.08.17-.24.34-.31.52.18-.23.23-.29.13-.18l-.09.12c-.07.07-.14.15-.22.22a1.51,1.51,0,0,0-.23.21c.24-.19.29-.22.13-.11l-.09.06a4.17,4.17,0,0,1-.66.35,1.87,1.87,0,0,0-.86,1.12,1.93,1.93,0,0,0,.19,1.45,1.89,1.89,0,0,0,1.12.86,2.21,2.21,0,0,0,1.45-.19Z" transform="translate(-9.76)"/><path class="cls-17" d="M729.89,61.74a11.94,11.94,0,0,0-4.49-2.64,7.9,7.9,0,0,0-5.36,0,6,6,0,0,0-3.26,3.85,12.58,12.58,0,0,0,0,5.82A1.88,1.88,0,0,0,719.12,70a1.92,1.92,0,0,0,1.3-2.31l-.09-.58s-.08-.6,0-.27c0-.36-.08-.71-.09-1.07a9.37,9.37,0,0,1,0-1.06c0-.57-.08.29,0-.27,0-.14.06-.29.1-.43s.09-.23.12-.35,0-.1-.05.1l.09-.2a4.48,4.48,0,0,1,.42-.7c-.26.36,0,0,.09-.06s.42-.34.06-.09l.3-.2.2-.1c-.21.08-.24.1-.1,0s.28-.09.42-.12c.48-.12-.31,0,.18,0,.33,0,.64,0,1,0H723l.24,0,.41.08a7.9,7.9,0,0,1,.95.27l.46.17c-.25-.1,0,0,.09,0s.54.27.8.42.56.35.83.54c-.27-.18,0,.05.13.12l.37.33a1.87,1.87,0,1,0,2.65-2.65Z" transform="translate(-9.76)"/><ellipse class="cls-18" cx="665.55" cy="155.52" rx="147.83" ry="114.25" transform="translate(355.29 769.4) rotate(-77.07)"/><ellipse class="cls-19" cx="665.7" cy="155.71" rx="154.67" ry="121.62" transform="translate(355.23 769.7) rotate(-77.07)"/></svg>