<svg id="Layer_1" data-name="Layer 1" xmlns="http://www.w3.org/2000/svg" viewBox="0 0 792.15 311.43"><defs><style>.cls-1{font-size:68.98px;font-family:Cinzel-SemiBold, Cinzel;font-weight:600;letter-spacing:0.07em;}.cls-1,.cls-17{fill:#231f20;}.cls-2{letter-spacing:0.08em;}.cls-3{letter-spacing:0.07em;}.cls-4{letter-spacing:0.08em;}.cls-5{letter-spacing:0.08em;}.cls-6{letter-spacing:0.08em;}.cls-7{letter-spacing:0.07em;}.cls-8{letter-spacing:0.08em;}.cls-9{letter-spacing:0.08em;}.cls-10{letter-spacing:0.09em;}.cls-11{letter-spacing:0.02em;}.cls-12{letter-spacing:0.07em;}.cls-13{letter-spacing:0.09em;}.cls-14{letter-spacing:0.08em;}.cls-15{letter-spacing:0.08em;}.cls-16{letter-spacing:0.1em;}.cls-18,.cls-19{fill:none;stroke:#231f20;stroke-miterlimit:10;}.cls-18{stroke-width:3px;}.cls-19{stroke-width:5px;}</style></defs><text class="cls-1" transform="translate(283.67 95.43)">W<tspan class="cls-2" x="71.74" y="0">e</tspan><tspan class="cls-3" x="115.55" y="0">ll</tspan><tspan class="cls-4" x="200.26" y="0">i</tspan><tspan class="cls-5" x="229.93" y="0">n</tspan><tspan class="cls-6" x="288.91" y="0">g</tspan><tspan class="cls-7" x="344.85" y="0">t</tspan><tspan class="cls-8" x="390.31" y="0">o</tspan><tspan class="cls-9" x="449.02" y="0">n</tspan><tspan class="cls-10"><tspan x="0" y="82.78">B</tspan><tspan class="cls-7" x="50.77" y="82.78">o</tspan><tspan class="cls-11" x="108.92" y="82.78">t</tspan><tspan class="cls-9" x="151.07" y="82.78">an</tspan><tspan class="cls-12" x="261.1" y="82.78">i</tspan><tspan class="cls-13" x="290.01" y="82.78">c</tspan><tspan class="cls-9" x="343.75" y="82.78">al</tspan></tspan><tspan class="cls-9"><tspan x="0" y="165.56">S</tspan><tspan class="cls-10" x="43.25" y="165.56">o</tspan><tspan class="cls-4" x="103.06" y="165.56">c</tspan><tspan class="cls-14" x="156.38" y="165.56">i</tspan><tspan class="cls-15" x="185.77" y="165.56">e</tspan><tspan class="cls-16" x="230.13" y="165.56">t</tspan><tspan x="278.21" y="165.56">y</tspan></tspan></text><path class="cls-17" d="M68.1,262.62C76.94,245,79.46,225.2,85.87,206.71a127.16,127.16,0,0,0,4.51-14.53c1.06-4.92,1-10,2.52-14.83s4-9.42,6.14-14c1.07-2.29,2.07-4.65,3.27-6.88a15.52,15.52,0,0,1,4.45-5.05c3.57-2.71,7.11-5.14,10-8.58A41,41,0,0,0,123.5,132a39.42,39.42,0,0,0,2-6.14q.36-1.52.6-3.06a10.73,10.73,0,0,1,.51-2.64c.11-.26.28-.2.15-.2.27,0,.54.3.72.47a5.64,5.64,0,0,1,1.39,2.29,31.82,31.82,0,0,1,1.56,6.58,17.12,17.12,0,0,1-.33,6.34,14.31,14.31,0,0,1-3.14,5.51c-2.65,3.15-5.37,6.4-4.41,10.79.86,3.94,4.38,6.23,8.19,4.55,5-2.18,9.79-4.78,14.65-7.16,3.87-1.9,8.44-3.9,10.43-8,1.81-3.73,1.37-8.45-2.4-10.77-3.34-2.06-8.06-1.67-11.64-.55a29.86,29.86,0,0,0-9.86,5.65c-.95.78-1.85,1.62-2.73,2.49-1.71,1.7.94,4.35,2.65,2.65,4.43-4.41,10.65-8.74,17.23-7.82,1.51.22,3.17.84,3.8,2.36a5.56,5.56,0,0,1-.71,4.87,12.52,12.52,0,0,1-4.76,3.92c-2.15,1.17-4.38,2.2-6.58,3.27l-6.92,3.4-3.35,1.64c-.77.38-1.84,1.14-2.74.92-1.06-.27-1.56-1.71-1.7-2.66-.25-1.78.65-3.3,1.68-4.69,1.25-1.68,2.76-3.17,3.93-4.93a15.15,15.15,0,0,0,2.32-6,27.77,27.77,0,0,0-1.43-13c-1-3.13-4.62-8.13-8.3-5-1.61,1.38-1.62,3.51-2,5.44a37.67,37.67,0,0,1-1.57,6A36.63,36.63,0,0,1,115,139.13a43.78,43.78,0,0,1-9.15,8.3,24.26,24.26,0,0,0-5,4.42,29.29,29.29,0,0,0-3.43,6.1c-2.12,4.53-4.35,9-6.32,13.63a44,44,0,0,0-2.41,6.77,55.57,55.57,0,0,0-1.1,7.39,66.3,66.3,0,0,1-3.32,14.08c-1.55,4.62-3.22,9.19-4.6,13.86-1.34,4.52-2.52,9.09-3.69,13.65-2.34,9.09-4.67,18.22-8.2,26.94-.89,2.19-1.88,4.34-2.94,6.46s2.15,4,3.24,1.89Z"/><path class="cls-17" d="M127.23,153.92c-3.16,3.24-5.59,8-5.53,12.6a5.77,5.77,0,0,0,4,5.64,11.84,11.84,0,0,0,6.69-.32c3-.82,5.89-1.8,8.78-2.87a42.74,42.74,0,0,0,7.47-3.35,13.34,13.34,0,0,0,5.15-5.12,10.52,10.52,0,0,0,.83-6.4c-1.07-6.1-7.54-8.77-13-6.76-2.25.82-1.28,4.44,1,3.61,3.42-1.24,7.47-.27,8.34,3.67.76,3.46-1.36,6-4.16,7.77-3.7,2.26-8.07,3.59-12.18,4.89-1.88.59-8.58,3.35-9.1-.3-.27-1.88.56-4.31,1.33-6a15.93,15.93,0,0,1,3.07-4.42c1.69-1.73-1-4.38-2.65-2.65Z"/><path class="cls-17" d="M124.42,170.28a16.2,16.2,0,0,0-2.25,5.84c-.34,2-.64,4.31.29,6.25,2.33,4.83,9.28,4,13.44,2.7a64.28,64.28,0,0,0,14.23-6.52c3.54-2.19,6.22-5.41,5.5-9.82-.63-3.83-4.16-6.39-7.91-6.61-2.41-.15-2.4,3.6,0,3.75.49,0-.18-.07.26,0a10.07,10.07,0,0,1,1.33.37,4.26,4.26,0,0,1,2.46,2.41c1.11,3-1.24,5.21-3.54,6.63a64.26,64.26,0,0,1-10.68,5.2,25.92,25.92,0,0,1-6,1.74c-1.63.2-3.77.23-5.13-.84s-.8-3.12-.62-4.3a13.44,13.44,0,0,1,1.87-4.93c1.27-2.07-2-4-3.23-1.9Z"/><path class="cls-17" d="M127.44,184.67c-2.37,1-4.71,2.75-4.46,5.63a6.55,6.55,0,0,0,4.88,5.46c3,.8,6.08-.38,9-1a29.2,29.2,0,0,1,9.42-.28,1.88,1.88,0,0,0,1.88-1.87,1.93,1.93,0,0,0-1.88-1.88,31.24,31.24,0,0,0-7.36-.06c-2.52.29-4.91,1-7.4,1.46-1.66.29-3.75.21-4.64-1.49s1.29-2.28,2.41-2.75a1.89,1.89,0,0,0,.67-2.57,1.92,1.92,0,0,0-2.56-.67Z"/><path class="cls-17" d="M145.2,180.5c3.44,2.15,7.52,5.91,7.06,10.4-.22,2.15-1.69,3.83-3.25,5.19a20.11,20.11,0,0,1-5.2,3.47,34.2,34.2,0,0,1-5.07,1.37,23.45,23.45,0,0,0-6.41,2.69,50.15,50.15,0,0,0-4.53,3.28,44.46,44.46,0,0,1-5.82,3.76,18.84,18.84,0,0,1-3.09,1.44,9.82,9.82,0,0,1-1.06.3l-.38.07c-.46.08.19,0-.22,0a11.16,11.16,0,0,1-6.93-1.87c-2-1.29-3.93,2-1.89,3.24a13.69,13.69,0,0,0,12.92,1.28,39.66,39.66,0,0,0,7.1-4.07c1.59-1.13,3-2.41,4.67-3.5a20.76,20.76,0,0,1,6.78-3.06,31.51,31.51,0,0,0,6.24-1.92,25,25,0,0,0,6-4.31,11.46,11.46,0,0,0,3.74-6.59c.91-6.19-4-11.4-8.81-14.44-2.06-1.29-3.94,2-1.9,3.24Z"/><path class="cls-17" d="M87.27,188.51c.47,6.44,4.72,13.27,11.41,14.61a1.92,1.92,0,0,0,2.31-1.31,1.9,1.9,0,0,0-1.31-2.31,8.74,8.74,0,0,1-1-.24l-.47-.16L98,199l-.24-.11-.46-.23c-.3-.16-.59-.34-.88-.53L96,197.9l-.21-.15,0,0c-.25-.2-.49-.41-.73-.63a13.59,13.59,0,0,1-1.4-1.53c-.12-.14.09.14-.1-.12s-.21-.3-.31-.46-.37-.57-.54-.86-.33-.6-.48-.91-.16-.34-.24-.51c-.25-.55.1.31-.1-.25a17.82,17.82,0,0,1-.63-2c-.09-.38-.16-.76-.22-1.14s0,.16,0-.27c0-.19,0-.39,0-.58a1.91,1.91,0,0,0-1.87-1.87,1.89,1.89,0,0,0-1.88,1.87Z"/><path class="cls-17" d="M115.18,214.39c-1.18,14.46-2.45,28.93-3.43,43.41-.07,1.07-.12,2.15-.18,3.23,0,.57,0,.48-.52.53s-.88,0-1.32,0c-4.79.06-9.59,0-14.38,0q-14.89,0-29.78-.13l1.62,2.82c.3-.56.6-1.12.91-1.68,1.14-2.12-2.09-4-3.24-1.89L64,262.41a1.9,1.9,0,0,0,1.62,2.82c14.57.09,29.16.28,43.73.11,1.64,0,3.5.09,4.8-1.09s1.19-3,1.29-4.66c.28-4.9.7-9.79,1.08-14.68q1.2-15.27,2.46-30.52c.2-2.41-3.55-2.39-3.75,0Z"/><path class="cls-17" d="M134,152.69a6.68,6.68,0,0,0-8.81-7.91,2,2,0,0,0-1.12.86,2,2,0,0,0-.19,1.44,1.9,1.9,0,0,0,2.31,1.31,5.37,5.37,0,0,1,1.13-.3l-.5.07a5.39,5.39,0,0,1,1.27,0l-.5-.07a4.05,4.05,0,0,1,.77.16c.13,0,.25.08.37.12s.12,0-.17-.08l.17.08a3.82,3.82,0,0,1,.59.35l.16.11-.15-.11.28.27.26.28c.21.24-.28-.4,0,0a4.88,4.88,0,0,1,.34.58c.21.45-.11-.31,0,0l.12.36a6.69,6.69,0,0,1,.16.75l-.07-.5a5.23,5.23,0,0,1,0,1.25l.07-.5-.09.47a1.87,1.87,0,1,0,3.61,1Z"/><path class="cls-17" d="M126.45,163.37c-.7-.08-.34-.06-.21,0s.2,0,.22.07-.48-.25-.2-.09l.2.12c.06,0,.11.09.17.11-.37-.17-.29-.23-.13-.08l.34.34c.2.22,0,0-.1-.13.05.08.11.15.17.23l.3.5a3.74,3.74,0,0,0,.22.45c-.28-.42-.09-.22,0-.06l.11.3a11.13,11.13,0,0,1,.3,1.17c0,.1,0,.22,0,.33,0-.14,0-.42,0-.11s0,.41,0,.61c0,.41-.06.83,0,1.23,0-.52,0-.23,0-.06a3,3,0,0,1-.07.32q-.08.32-.18.63a1.88,1.88,0,0,0,1.31,2.3,1.92,1.92,0,0,0,2.31-1.31,9.69,9.69,0,0,0-.2-6.4,7.86,7.86,0,0,0-1.67-2.81,4.53,4.53,0,0,0-2.89-1.39,1.88,1.88,0,0,0-1.88,1.87,1.94,1.94,0,0,0,1.88,1.88Z"/><path class="cls-17" d="M125.7,177.16c-.62-.07,0,0,.15.06s.35.14.52.17c-.4-.07-.24-.1-.05,0l.19.1.46.31c-.47-.3,0,0,.11.13s.25.28.37.41c-.37-.4,0,0,.08.17l.15.29c.15.29-.11-.32,0-.1s.12.36.17.55a2.74,2.74,0,0,0,0,.28c0-.14,0-.41,0-.1a5.42,5.42,0,0,1,0,.57c0,.1,0,.2,0,.29,0-.16.06-.41,0-.1a5.62,5.62,0,0,1-.15.55,1.48,1.48,0,0,0-.1.27c0-.12.17-.38,0-.08a4.94,4.94,0,0,1-.3.49c-.2.31,0-.06.06-.06s-.2.23-.23.26a1.87,1.87,0,0,0,2.65,2.65,6.53,6.53,0,0,0,1.44-6.67,6.73,6.73,0,0,0-2.27-3,6.59,6.59,0,0,0-3.25-1.22,1.9,1.9,0,0,0-1.33.55,2,2,0,0,0-.55,1.33,2,2,0,0,0,.55,1.32,2.17,2.17,0,0,0,1.33.55Z"/><path class="cls-17" d="M131.61,195.17c3.09-2.65,2.33-8.46-1.36-10.19a2,2,0,0,0-1.45-.19,1.91,1.91,0,0,0-1.12.87,1.89,1.89,0,0,0,.67,2.56,3.09,3.09,0,0,1,.44.24l.21.14c-.48-.29-.25-.2-.13-.09a3.85,3.85,0,0,1,.35.35c.11.13.21.34-.09-.12l.15.2a3.62,3.62,0,0,1,.24.43l.11.22c-.27-.5-.12-.29-.07-.13a6.63,6.63,0,0,1,.25,1s-.07-.59,0-.16c0,.08,0,.16,0,.25s0,.33,0,.5-.1.44,0-.17c0,.08,0,.16-.05.25a4.21,4.21,0,0,1-.12.48c0,.07,0,.15-.08.23-.11.29.21-.44.06-.15-.07.13-.14.27-.22.4a1.43,1.43,0,0,0-.14.2c-.1.16.34-.39.08-.12a3.32,3.32,0,0,1-.38.37,1.89,1.89,0,0,0,0,2.66,1.92,1.92,0,0,0,2.65,0Z"/><path class="cls-17" d="M110.46,196.8c9.26-6,15.74-15.39,16.61-26.56.19-2.41-3.56-2.4-3.75,0-.77,9.79-6.67,18.08-14.76,23.32-2,1.31-.14,4.56,1.9,3.24Z"/><path class="cls-17" d="M132.66,194.45A228,228,0,0,0,140.24,225c.74,2.29,4.36,1.31,3.62-1a229.72,229.72,0,0,1-7.59-30.59c-.42-2.37-4-1.36-3.61,1Z"/><path class="cls-17" d="M126.31,194.91q-.11,17.7,1.16,35.35c.18,2.4,3.93,2.41,3.75,0q-1.28-17.64-1.16-35.35c0-2.41-3.74-2.41-3.75,0Z"/><path class="cls-17" d="M119.91,183.08a430.49,430.49,0,0,1-12.14,46.2c-.75,2.3,2.87,3.29,3.61,1a428.15,428.15,0,0,0,12.14-46.2c.48-2.36-3.13-3.37-3.61-1Z"/><path class="cls-17" d="M136.05,134.81a394,394,0,0,0,7.1-58.29c.11-2.41-3.64-2.41-3.75,0a387.35,387.35,0,0,1-7,57.29c-.46,2.36,3.15,3.37,3.62,1Z"/><path class="cls-17" d="M135.38,127.52c-2.8-16.08-10.43-30.71-18-45-1.12-2.14-4.36-.25-3.23,1.89,7.4,14,14.84,28.32,17.58,44.11.41,2.37,4,1.36,3.62-1Z"/><path class="cls-17" d="M137.79,133.49A405.47,405.47,0,0,1,164,95.68,1.93,1.93,0,0,0,164,93a1.88,1.88,0,0,0-2.65,0,413.87,413.87,0,0,0-26.75,38.56c-1.26,2.07,2,3.95,3.24,1.9Z"/><path class="cls-17" d="M125.8,107.86c-6.39-1.76-14.51-3.41-19.67,2.07-1.21,1.3-2.15,3-1.43,4.75a5.34,5.34,0,0,0,3.58,2.82,20.2,20.2,0,0,0,9.56.2,21.68,21.68,0,0,0,9.85-4.87,1.89,1.89,0,0,0,0-2.65,1.91,1.91,0,0,0-2.65,0,18.08,18.08,0,0,1-8.19,3.91,18.28,18.28,0,0,1-4.55.28,11.69,11.69,0,0,1-4-.93c-.11,0-.18-.22-.18-.21.12.31.12,0,.33-.31a6.67,6.67,0,0,1,1.55-1.4,10.39,10.39,0,0,1,4.13-1.53c3.58-.55,7.23.54,10.64,1.49,2.33.65,3.32-3,1-3.62Z"/><path class="cls-17" d="M145.15,122.84l4.63-1a24,24,0,0,1,3.95-.66,4.38,4.38,0,0,1,2.87.69,2.54,2.54,0,0,1,.83,1.06,1.33,1.33,0,0,1,.06.81c-.64,1.87-3.79,1-5.37.54a55.53,55.53,0,0,1-8.05-3.25,1.93,1.93,0,0,0-2.57.68,1.9,1.9,0,0,0,.68,2.56,63.76,63.76,0,0,0,8.07,3.34c2.68.9,5.6,1.66,8.25.25a5.05,5.05,0,0,0,2.22-6.72c-1.19-2.56-4-3.74-6.7-3.72a24,24,0,0,0-4.77.71l-5.09,1.08a1.89,1.89,0,0,0-1.31,2.31,1.91,1.91,0,0,0,2.3,1.31Z"/><path class="cls-17" d="M142.62,92.23c0-.15.19-.52.19-.52s.17-.36.23-.5a12.55,12.55,0,0,1,.8-1.37,10.35,10.35,0,0,1,1.68-2l.52-.46.31-.25.1-.07a11.43,11.43,0,0,1,1.34-.82,5,5,0,0,1,1.12-.38s.45-.07.27,0,.18,0,.17,0,.72,0,.41,0a3.52,3.52,0,0,1,.71.18c-.26-.09.21.1.3.15l.22.15c-.08-.06-.18-.19,0,0,.06.07.13.13.19.19s.08.09,0,0l.09.16s.13.32.05.09c0,.09,0,.18.08.28.08.3,0-.24,0,.08a2.71,2.71,0,0,1,0,.29c0,.13,0,.27,0,.39,0,0,0-.21,0,0s-.06.25-.1.38-.18.41-.07.2a5.36,5.36,0,0,1-1.6,1.82,17.74,17.74,0,0,1-2.79,1.64,20.26,20.26,0,0,1-6.58,1.82,1.91,1.91,0,0,0-1.87,1.87,1.89,1.89,0,0,0,1.87,1.88,24.56,24.56,0,0,0,8.27-2.24c2.42-1.14,5-2.75,6.11-5.3a5.39,5.39,0,0,0-2.56-7.25c-2.71-1.18-5.6-.25-7.86,1.45A15.43,15.43,0,0,0,139,91.23a1.88,1.88,0,0,0,3.62,1Z"/><path class="cls-17" d="M139.62,97.47l-.27-.3c.15.17-.06-.08-.07-.1-.15-.22-.3-.44-.44-.67-.28-.46-.53-.94-.79-1.41A9.69,9.69,0,0,0,136,92.3a5.63,5.63,0,0,0-3.46-1.49,5.08,5.08,0,0,0-3.58,1.5c-3.26,3.14-2.2,8.66,1,11.39a13.08,13.08,0,0,0,6.62,2.89,1.92,1.92,0,0,0,2.31-1.31,1.89,1.89,0,0,0-1.31-2.3,10.53,10.53,0,0,1-4.38-1.52l-.46-.31c-.17-.13,0,0,0,0l-.28-.24a8.47,8.47,0,0,1-.83-.86c-.19-.24.13.19,0,0-.05-.07-.1-.14-.14-.21s-.18-.28-.26-.43-.21-.46-.09-.17c-.08-.21-.16-.42-.22-.64l-.12-.49a2.17,2.17,0,0,1,0-.25c-.06-.28,0,.29,0,0s0-.72,0-1.08c0-.11.09-.33,0,0,0-.08,0-.16,0-.24a3.62,3.62,0,0,1,.13-.47,2.09,2.09,0,0,1,.08-.23s-.13.25,0,.07.21-.38.33-.56,0,0-.05,0l.16-.18c.06-.07.42-.4.27-.29a2,2,0,0,1,.51-.3s-.19.09,0,0-.22,0,.06,0h.27c-.29,0-.07,0,0,0s.48.18.23.06c.17.08.32.18.48.27s.27.22.07,0l.28.25a8.28,8.28,0,0,1,1.44,2.12,13.72,13.72,0,0,0,1.91,2.8,1.87,1.87,0,1,0,2.65-2.65Z"/><path class="cls-17" d="M160.53,100.57a20.75,20.75,0,0,1,5.46-2.8c.4-.12.8-.2,1.21-.29s-.15,0,.2,0,.47,0,.71,0,.4,0,.6,0l.26,0c-.09,0-.35-.08,0,0,.16,0,.32.08.48.12l.3.11c-.17-.07-.17-.09,0,0s.46.31.33.2.21.24.25.29c-.2-.25,0,.06.07.16-.11-.21,0,0,0,.1a1.66,1.66,0,0,1,.09.37c0-.3,0,.29,0,.38s0,0,0,0c0,.13-.07.25-.1.38s0,0-.11.29l-.21.34s-.18.23-.06.09c-1.14,1.35-3,1.64-4.76,1.56a9,9,0,0,1-5.41-2.17,1.91,1.91,0,0,0-2.65,0,1.9,1.9,0,0,0,0,2.65,13.08,13.08,0,0,0,7.42,3.23,10,10,0,0,0,7.67-2.23,5.68,5.68,0,0,0,.8-7.67c-1.55-1.93-4.21-2.18-6.5-1.84a19.94,19.94,0,0,0-7.91,3.52A1.93,1.93,0,0,0,158,99.9a1.89,1.89,0,0,0,2.57.67Z"/><path class="cls-17" d="M120.11,87.87a27.47,27.47,0,0,0-7.9-2.24,6.75,6.75,0,0,0-6.62,2.86,4.47,4.47,0,0,0-.29,4.24,5.09,5.09,0,0,0,2.16,2.1,13.69,13.69,0,0,0,4.81,1.37A13.47,13.47,0,0,0,120,94.7a1.87,1.87,0,1,0-1.89-3.23l-.39.19c-.15.07-.52.21-.15.07-.43.17-.87.33-1.32.46a11.52,11.52,0,0,1-1.44.31c.28,0,0,0-.09,0l-.41,0a9.57,9.57,0,0,1-1.07,0c-.31,0-.61-.06-.91-.07s.55.08.3,0l-.63-.1a13.74,13.74,0,0,1-1.89-.47c-.16-.06-.32-.13-.48-.18s.31.16.09,0l-.23-.11-.45-.25a1.37,1.37,0,0,0-.2-.13c-.19-.08.27.26.05,0-.06,0-.45-.46-.25-.22s-.24-.44,0-.06,0-.3,0-.11,0-.12,0-.17,0-.11,0,.08l0-.16c.14-.13.08-.18,0,0l.16-.3c.14-.28.08-.12,0,0l.24-.26.26-.23c-.23.19,0,0,0,0l.31-.18c.37-.24-.22,0,.2-.09.19,0,.37-.11.57-.15s.59-.07.16,0a7.69,7.69,0,0,1,1.27,0l.32,0c-.29,0-.07,0,.09,0l.86.16c.7.15,1.4.31,2.08.5s1.21.37,1.81.59l.8.3.29.12c-.28-.11-.08,0,.08,0a1.94,1.94,0,0,0,2.57-.67,1.89,1.89,0,0,0-.68-2.57Z"/><path class="cls-17" d="M119.3,87.19a11.88,11.88,0,0,1,.61-2.17h0a2.14,2.14,0,0,1,.1-.22c.08-.17.16-.34.25-.51.18-.33.37-.65.58-1l.32-.46c.12-.17,0,0,0,.06l.2-.24a9.09,9.09,0,0,1,.74-.78l.23-.2s.23-.17.06,0,0,0,.05,0l.26-.17.39-.22c.3-.16,0,0,0,0l.28-.1c.16,0,.33-.08.5-.12s-.12,0-.12,0,.25,0,.28,0h.19c.21,0-.15,0-.17,0a4.84,4.84,0,0,0,.51.14s-.4-.21-.08,0l.17.09.17.1c.23.14,0,.06-.06,0s.24.22.28.26c.26.27-.07-.07-.06-.08s.12.2.13.22c.18.25-.11-.1,0-.11a1,1,0,0,1,0,.18c.06.43.07-.26,0,.07s.07-.29,0,.08,0,.05,0,0a1.71,1.71,0,0,1-.14.27l-.16.26s-.17.24,0,.07,0,0,0,0l-.21.24c-.26.28-.54.55-.82.83-1.37,1.34-2.81,2.63-4.3,3.85a1.89,1.89,0,0,0,0,2.65,2,2,0,0,0,2.66,0q2.32-1.92,4.49-4c1.48-1.46,2.88-3.41,2.06-5.59a5,5,0,0,0-4.83-3.16,7.42,7.42,0,0,0-5.18,2.86,13.29,13.29,0,0,0-2.89,6.06A1.92,1.92,0,0,0,117,88.5a1.9,1.9,0,0,0,2.31-1.31Z"/><path class="cls-17" d="M165.22,93.2A33.62,33.62,0,0,0,167,84.54c.15-2.27.1-5-1.67-6.73a4.11,4.11,0,0,0-3.79-1,5.27,5.27,0,0,0-3,2.32,10.08,10.08,0,0,0-1.15,7.22,11.52,11.52,0,0,0,4,6.87,1.93,1.93,0,0,0,2.65,0,1.89,1.89,0,0,0,0-2.66,7.82,7.82,0,0,1-2.7-3.92,9.83,9.83,0,0,1-.29-1.19,6.38,6.38,0,0,1-.09-1.12,6.08,6.08,0,0,1,.33-2.31,3.15,3.15,0,0,1,.45-.91c.15-.24,0,0,.2-.25a2,2,0,0,1,.2-.21c.23-.22-.17.12.07-.06,0,0,.36-.23.18-.12s.08,0,.12,0c-.35,0,.23,0-.08,0l.24.06c.24.06-.07,0-.07,0s.26.19.08,0l.17.17c-.21-.21,0,0,.09.15s.2.46.1.18a5.69,5.69,0,0,1,.31,1.23c0-.3,0,.14,0,.23s0,.36,0,.54c0,.59,0,1.18-.07,1.76a29.89,29.89,0,0,1-1.59,7.54,1.88,1.88,0,0,0,3.62,1Z"/><path class="cls-17" d="M165.87,93.16A90.25,90.25,0,0,1,181,81.43c2.05-1.27.17-4.51-1.89-3.24a95.06,95.06,0,0,0-15.86,12.32c-1.74,1.67.91,4.32,2.65,2.65Z"/><path class="cls-17" d="M117.77,83.19l-5-9.22a1.9,1.9,0,0,0-2.57-.67,1.93,1.93,0,0,0-.67,2.57l5,9.21a1.88,1.88,0,0,0,3.24-1.89Z"/><path class="cls-17" d="M111.76,74.31a21.92,21.92,0,0,0-6-4c-2.28-1-5.2-2.24-7.67-1.22a4,4,0,0,0-1.21,6.83,11.09,11.09,0,0,0,6,3.22c3.16.64,6.33.2,9.49-.26a1.88,1.88,0,0,0,1.31-2.3,1.92,1.92,0,0,0-2.31-1.31,23.2,23.2,0,0,1-7.5.25A8.77,8.77,0,0,1,101,74.42a4.69,4.69,0,0,1-1.78-1.65c.08.17-.08.13,0,0a1.06,1.06,0,0,1,.24-.23,3,3,0,0,1,.34-.09,3.25,3.25,0,0,1,.54,0,11,11,0,0,1,3.35,1A18.61,18.61,0,0,1,109.11,77c1.76,1.65,4.42-1,2.65-2.65Z"/><path class="cls-17" d="M112.06,74.69a39,39,0,0,1-3.26-10.32c-.44-2.67-.73-5.66.43-8.2a5.79,5.79,0,0,1,3.09-3.12c.55-.21,1.29-.43,1.77,0a6,6,0,0,1,1.25,2.58,14.56,14.56,0,0,1-.69,8.91c-1.31,3.72-3,7.34-4.62,10.91-1,2.17,2.22,4.08,3.24,1.89a120.58,120.58,0,0,0,5.09-12.08c1.29-3.77,1.71-8,.19-11.78-.86-2.15-2.24-4.28-4.78-4.4a8,8,0,0,0-5.83,2.46c-3,3-3.51,7.26-3.1,11.26a42.42,42.42,0,0,0,4,13.79c1,2.18,4.27.28,3.24-1.89Z"/><path class="cls-17" d="M108.53,64.68a9.9,9.9,0,0,0-8.09-3.3A8.22,8.22,0,0,0,95.16,64a4.21,4.21,0,0,0,0,5.46,9,9,0,0,0,5.88,3.1,1.93,1.93,0,0,0,2.31-1.31,1.9,1.9,0,0,0-1.31-2.31,11,11,0,0,1-1.27-.25,5.58,5.58,0,0,1-.58-.18l-.24-.08c-.34-.12.1.06-.08,0s-.6-.3-.89-.47l-.28-.18c.21.14,0,0-.08-.07l-.19-.18c-.11-.1-.21-.21-.31-.32s.17.31,0,0c-.07-.11-.13-.23-.2-.33s-.09-.24,0,0,0,0,0-.07-.11-.5,0-.13,0-.14,0-.13,0,.39,0,.18c0,0,0-.18.06-.18s-.21.35,0,.1a1.76,1.76,0,0,0,.14-.23c-.19.36,0,0,.11-.09s.41-.33.11-.13a8.71,8.71,0,0,1,1-.58l.12-.06c-.21.1,0,0,.05,0l.48-.17.46-.13c.12,0,.63-.12.27-.08a6.1,6.1,0,0,1,1.13,0c.18,0,.45.08.13,0l.59.13.5.15c.16.06.5.2.15,0a9.86,9.86,0,0,1,.92.46c.28.17.56.35.83.54l.13.1c.31.22-.24-.21-.08-.06l.29.24c.24.2.46.42.68.64a1.88,1.88,0,0,0,2.65,0,1.91,1.91,0,0,0,0-2.65Z"/><path class="cls-17" d="M101.72,62.37a4.49,4.49,0,0,1-.24-.42l-.1-.21c-.08-.18-.07-.14.05.13-.06-.26-.18-.51-.24-.77,0-.07,0-.15,0-.22s0-.15,0,.16a2,2,0,0,0,0-.34c0-.26,0-.51,0-.77s0-.15,0,.17a1.43,1.43,0,0,1,0-.22,3,3,0,0,1,.11-.43l.1-.31-.06.14a1.74,1.74,0,0,1,.1-.19c.12-.23.27-.42.4-.64-.29.49-.1.14,0,0l.24-.24c.08-.08.18-.14.26-.22-.39.39-.14.1,0,0a6,6,0,0,1,.6-.33c.29-.15-.46.17,0,0a1.52,1.52,0,0,1,.28-.09l.39-.1c.07,0,.51-.09.14,0s.08,0,.15,0a2.81,2.81,0,0,1,.41,0h.31l.2,0c.2,0,.14,0-.19,0,.22.08.48.1.72.17a3.17,3.17,0,0,0,.4.14l-.15-.07.2.1a1.88,1.88,0,1,0,1.89-3.24,7.5,7.5,0,0,0-6.78,0,6.63,6.63,0,0,0-3.54,5.7,7.29,7.29,0,0,0,1.1,4.06,1.88,1.88,0,0,0,3.24-1.89Z"/><path class="cls-17" d="M140.81,73.37A44.42,44.42,0,0,1,136.5,70a22.37,22.37,0,0,1-3.63-3.84c-.67-1-1.46-2.38-1-3.63a4.22,4.22,0,0,1,1.45-1.63,10,10,0,0,1,2.27-1.43c3.34-1.28,4.6,3.81,5,6a24.44,24.44,0,0,1-.85,11.36c-.72,2.31,2.9,3.3,3.61,1a28.08,28.08,0,0,0,1.13-11.41c-.41-3.62-1.29-7.66-4.53-9.82-3.39-2.26-7.07-.41-9.75,2-2.91,2.64-2.54,6.51-.45,9.53,2.34,3.39,5.83,6.12,9.19,8.45a1.88,1.88,0,0,0,1.89-3.24Z"/><path class="cls-17" d="M144.74,68.08c0-.07.29-.34.28-.4s-.33.4-.13.17l.13-.16.35-.39c.12-.13.24-.25.37-.37l.31-.27c-.15.12.22-.17.31-.22s.47-.29.71-.42l.32-.15c-.09,0-.29.09.05,0s.47-.15.71-.2l.29-.06c.31-.08-.27,0,0,0s.4,0,.6,0a8.44,8.44,0,0,1,1.23.05c-.45-.05.19,0,.29.07l.3.09s.45.17.21.06.51.31.24.13.43.39.17.17,0,.17,0,0,0,0,0,0c.06.35,0,0,0-.08,0,.15,0,.29,0,.44,0-.08.1-.38,0,0,0,.1-.05.21-.08.31s-.24.64-.1.32a7.77,7.77,0,0,1-.66,1.2c-.24.38-.5.74-.77,1.1l-.17.22-.36.44a17.35,17.35,0,0,1-1.31,1.4c-.33.31-.67.6-1,.88s-.07.06,0,0l-.35.25L146,73a18.3,18.3,0,0,1-3.31,1.66,1.93,1.93,0,0,0-1.31,2.3,1.88,1.88,0,0,0,2.31,1.31A20.1,20.1,0,0,0,153.93,70a7.46,7.46,0,0,0,1.26-3.6,4.12,4.12,0,0,0-1.83-3.56,8.25,8.25,0,0,0-6.75-.68,9.75,9.75,0,0,0-5.11,4,1.88,1.88,0,0,0,3.24,1.89Z"/><path class="cls-17" d="M152,61.55a7.4,7.4,0,0,0-4.67-7.32,7.32,7.32,0,0,0-8.12,2.2,2,2,0,0,0-.55,1.32,1.88,1.88,0,0,0,3.2,1.33,5.13,5.13,0,0,1,.54-.6l.31-.27-.16.13a1.7,1.7,0,0,1,.22-.15c.21-.14.43-.25.65-.37l-.14.06.2-.08.32-.1.39-.1.2,0-.16,0c.25,0,.56,0,.82,0,.1,0,.32,0,.4,0-.12-.09-.35-.06,0,0a7,7,0,0,1,.78.23c.22.07-.31-.17,0,0l.36.19.34.23-.11-.09.15.13a6.23,6.23,0,0,1,.57.58c.23.26-.12-.19,0,0s.15.23.22.34a3,3,0,0,1,.35.66c-.12-.45,0-.05,0,.06s.08.26.11.39a2.15,2.15,0,0,0,.09.4l0-.23a2.45,2.45,0,0,1,0,.27,5.63,5.63,0,0,1,0,.82,1.87,1.87,0,0,0,1.87,1.87A1.93,1.93,0,0,0,152,61.55Z"/><path class="cls-17" d="M136.65,56.83c0-.31,0-.6,0-.91q0-.22,0,.15c0-.09,0-.18,0-.27s.06-.26.1-.39l.12-.39c.15-.41-.19.34,0,0,.13-.23.26-.46.41-.68s-.24.27.08-.09l.27-.28c.1-.09.38-.45.08-.09a1.21,1.21,0,0,1,.32-.22l.35-.2.17-.09-.14.06c.15-.15.65-.18.84-.23s-.42,0,0,0a3.38,3.38,0,0,1,.45,0,1.56,1.56,0,0,1,.39,0c0-.05-.44-.08,0,0,.14,0,.68.09.74.21-.25-.1-.28-.12-.09,0l.12.05.39.22a3.78,3.78,0,0,0,.33.22l-.12-.09.19.17a3.71,3.71,0,0,1,.29.27s.21.29.26.3c-.15-.19-.18-.22-.1-.11l.12.16c.07.12.14.23.2.35a1.85,1.85,0,0,1,.19.37c-.12-.49,0,.1.05.21a1.87,1.87,0,1,0,3.61-1,7.07,7.07,0,0,0-7.92-5,7,7,0,0,0-5.53,7.31,1.92,1.92,0,0,0,1.88,1.88,1.9,1.9,0,0,0,1.87-1.88Z"/><path class="cls-17" d="M155,64.72a15.48,15.48,0,0,0,2.79-4.79A7.38,7.38,0,0,0,156.08,53a5.47,5.47,0,0,0-4.82-1.31,7.27,7.27,0,0,0-4.65,3.32,1.88,1.88,0,0,0,.67,2.56,1.92,1.92,0,0,0,2.57-.67c.08-.13.17-.25.26-.38-.22.3,0,0,.13-.13l.31-.3.16-.14c.17-.15.07,0-.05,0,.26-.15.5-.31.76-.45a1.42,1.42,0,0,1,.18-.08s-.35.11-.14.06.33-.1.49-.14.46,0,.18,0h.18a3,3,0,0,1,.42,0c.31,0-.37-.1,0,0,.11,0,.23.08.34.1s-.18,0-.17-.08l.17.08a3.37,3.37,0,0,0,.35.22s-.28-.26-.15-.12.11.1.17.16.14.16.22.24-.2-.32-.09-.11l.1.13.16.29c0,.08.2.46.1.16s0,.11.06.18l.09.3a5,5,0,0,1,.16.67,2.51,2.51,0,0,0,0,.27c0-.15-.05-.47,0-.17s0,.33,0,.49,0,.2,0,.3c0,.29.13-.62,0-.29s-.08.38-.14.57-.14.42-.21.64c.11-.32-.07.14-.12.24a10.8,10.8,0,0,1-.63,1.1c-.46.72-1,1.4-1.5,2.08a1.88,1.88,0,0,0,.67,2.56,1.94,1.94,0,0,0,2.57-.67Z"/><path class="cls-17" d="M182.18,80.4a13,13,0,0,1,10.23-5.81,4.05,4.05,0,0,1,2.12.45,1.26,1.26,0,0,1,.44.41,1.17,1.17,0,0,1,0,.71,3.09,3.09,0,0,1-2.18,1.51,30,30,0,0,1-3.77.77,55.93,55.93,0,0,1-9.41.69c-2.41,0-2.41,3.74,0,3.75A62.45,62.45,0,0,0,190.15,82c3-.5,6.7-1.1,8.14-4.22s-.56-6-3.61-6.71a13.42,13.42,0,0,0-8.31,1.14,17.15,17.15,0,0,0-7.43,6.26,1.88,1.88,0,1,0,3.24,1.9Z"/><path class="cls-17" d="M181.15,78.63A16.88,16.88,0,0,1,179.58,73c0-.23,0-.46,0-.69s0-.23,0-.35c0,.21,0,.21,0,0a9.35,9.35,0,0,1,.32-1.15c-.13.36.14-.26.17-.32s.33-.53.23-.38.24-.28.3-.33a2.39,2.39,0,0,1,.23-.22c-.18.13-.18.13,0,0s.36-.22.55-.32c-.36.19,0,0,.14,0a6,6,0,0,1,.61-.15c-.46.09.18,0,.28,0l.31,0c-.24,0-.25,0,0,0s.3.08.44.14c-.42-.17.15.12.23.17-.34-.24.13.17.2.23-.29-.29,0,0,.06.11s.31.66.15.24a8.28,8.28,0,0,1,.32,1.21c-.09-.43,0,.07,0,.15s0,.43,0,.65c0,.43,0,.86,0,1.29a1.88,1.88,0,0,0,1.88,1.87,1.91,1.91,0,0,0,1.87-1.87,10.24,10.24,0,0,0-.82-5.1,5.27,5.27,0,0,0-4.62-2.87,6.23,6.23,0,0,0-4.81,2.2,8.49,8.49,0,0,0-1.84,5.42,18.17,18.17,0,0,0,1.71,6.7,1.93,1.93,0,0,0,2.31,1.31,1.89,1.89,0,0,0,1.3-2.31Z"/><path class="cls-17" d="M187.51,69.47c.08-.27.17-.53.26-.78s-.13.26,0-.07c.09-.16.16-.33.25-.49s.28-.48.44-.7l.12-.17-.08.11.31-.36c.19-.2.4-.38.6-.56l-.11.09.16-.11.4-.25c.06,0,.51-.25.27-.14s.14-.05.21-.07l.35-.09s.17,0,.17,0-.44,0-.14,0,.48,0,.72,0-.36-.08,0,0c.14,0,.28.05.41.09l.41.13c.32.1-.31-.17,0,0l.31.17.15.1c.08,0,.2.2.05,0s.06.06.12.12.15.17.24.25-.12-.13-.12-.16a1.21,1.21,0,0,0,.1.14l.2.35c.15.27-.1-.38,0,0,0,.07.11.5.07.26s0,.19,0,.27v.22c0,.31,0,0,0,0s-.25.89-.3,1c.13-.34,0,.07-.1.19s-.18.32-.28.48c-.21.35-.45.67-.68,1-.12.17,0,0,.05-.06a2.43,2.43,0,0,1-.2.25c-.13.17-.27.33-.4.49a1.91,1.91,0,0,0,0,2.65,1.9,1.9,0,0,0,2.65,0A12.14,12.14,0,0,0,197,69.08a5.44,5.44,0,0,0-1.29-5.14,6.37,6.37,0,0,0-4.31-1.84,6.83,6.83,0,0,0-4.62,1.75,9.55,9.55,0,0,0-2.84,4.62,1.88,1.88,0,0,0,3.62,1Z"/><path class="cls-17" d="M199.41,76.54a5.78,5.78,0,0,0,3.12-6.85,5.85,5.85,0,0,0-2.47-3.19,6.08,6.08,0,0,0-4.17-.76,1.84,1.84,0,0,0-1.12.86,1.89,1.89,0,0,0-.19,1.45,1.86,1.86,0,0,0,.86,1.12,2.23,2.23,0,0,0,1.44.19c-.64.09.11,0,.29,0s.46.05.11,0,.08,0,.15,0l.29.09c.14,0,.41.21-.08-.05a5.36,5.36,0,0,1,.53.28l.24.17c-.44-.24-.2-.16-.07,0l.21.21s.33.38.1.11,0,0,.06.09.12.2.17.3l0,.09c.08.18.06.12-.07-.17a1.66,1.66,0,0,0,.1.29c0,.1,0,.2.07.3.09.36,0-.47,0-.09,0,.2,0,.4,0,.61,0,.36.09-.49,0,0a2.46,2.46,0,0,1-.07.29c0,.1-.06.19-.09.29s0,.06.09-.21a1.42,1.42,0,0,1-.08.18,5.58,5.58,0,0,0-.32.52l.14-.18-.1.12-.22.22a2.19,2.19,0,0,0-.23.21c.25-.19.29-.22.13-.11l-.08.06a4.17,4.17,0,0,1-.66.35,1.88,1.88,0,0,0-.87,1.12,2,2,0,0,0,.19,1.45,1.92,1.92,0,0,0,1.12.86,2.21,2.21,0,0,0,1.45-.19Z"/><path class="cls-17" d="M190.21,61.74a12,12,0,0,0-4.5-2.64,7.9,7.9,0,0,0-5.36,0,6,6,0,0,0-3.26,3.85,12.72,12.72,0,0,0,0,5.82A1.88,1.88,0,0,0,179.43,70a1.94,1.94,0,0,0,1.31-2.31c0-.19-.07-.38-.1-.58,0,0-.08-.6,0-.27,0-.36-.07-.71-.09-1.07a9.38,9.38,0,0,1,0-1.06c0-.57-.09.29,0-.27,0-.14.06-.29.1-.43s.09-.23.12-.35,0-.1-.05.1l.09-.2a5.46,5.46,0,0,1,.43-.7c-.26.36,0,0,.08-.06s.42-.34.06-.09a3.28,3.28,0,0,1,.31-.2l.19-.1c-.21.08-.24.1-.1,0s.28-.09.42-.12c.48-.12-.31,0,.19,0l1,0h-.09l.24,0,.41.08a7.9,7.9,0,0,1,1,.27l.47.17c-.25-.1-.06,0,.08,0s.54.27.8.42.56.35.83.54c-.26-.18,0,.05.14.12l.37.33a1.87,1.87,0,0,0,2.65-2.65Z"/><ellipse class="cls-18" cx="125.86" cy="155.52" rx="147.83" ry="114.25" transform="translate(-53.88 243.4) rotate(-77.07)"/><ellipse class="cls-19" cx="126.02" cy="155.71" rx="154.67" ry="121.62" transform="translate(-53.95 243.69) rotate(-77.07)"/></svg>